# xmcd CD database file generated by Grip 2.94
# 
# Track frame offsets:
#       182
#       26110
#       59465
#       81485
#       114172
#       138055
# 
# Disc length: 2236 seconds
# 
# Revision: 3
# Processed by: cddbd v1.4b41PL1 Copyright (c) Steve Scherf et al.
# Submitted via: Grip 2.94
# 
DISCID=4908ba06
DTITLE=Many Artists - Blues de Luxe
DYEAR=1900
DGENRE=
TTITLE0=Sweet Home Chicago - The Loonie Brooks Blues Band
TTITLE1=Clouds in my Heart - Muddy Waters
TTITLE2=Don't though your love on me so strong - The Son Seals Blues Band
TTITLE3=Hey Bartender - Koko Taylor and her blues Machine
TTITLE4=Need a Friend - Mighty Joe Young
TTITLE5=Wang Dang Doodle - Wiilie Dixon and the Chiacgo Blues Allstars
EXTD=
EXTT0=
EXTT1=
EXTT2=
EXTT3=
EXTT4=
EXTT5=
PLAYORDER=
